<?xml version="1.0" standalone="no"?><!DOCTYPE svg PUBLIC "-//W3C//DTD SVG 1.1//EN" "http://www.w3.org/Graphics/SVG/1.1/DTD/svg11.dtd"><svg t="1639625809843" class="icon" viewBox="0 0 1024 1024" version="1.1" xmlns="http://www.w3.org/2000/svg" p-id="1893" width="64" height="64" xmlns:xlink="http://www.w3.org/1999/xlink"><defs><style type="text/css"></style></defs><path d="M827.392 339.968c14.336-2.048 28.672 0 43.008 0h30.72c6.144 0 14.336 2.048 20.48 4.096 2.048 6.144 6.144 10.24 12.288 12.288 16.384 10.24 30.72 6.144 36.864-12.288 8.192-26.624-24.576-34.816-40.96-20.48-4.096 2.048-6.144 6.144-6.144 8.192-6.144-2.048-12.288-2.048-20.48-4.096h-32.768c-14.336 0-28.672-2.048-45.056 0-26.624 2.048-53.248 8.192-77.824 16.384-8.192 4.096-18.432 6.144-28.672 12.288-2.048-2.048-4.096-6.144-8.192-8.192 8.192-8.192 18.432-14.336 26.624-20.48 20.48-14.336 45.056-26.624 67.584-34.816 14.336-4.096 28.672-6.144 43.008-10.24 16.384-4.096 34.816-10.24 51.2-8.192 2.048 4.096 8.192 8.192 14.336 10.24 18.432 6.144 30.72-2.048 32.768-22.528 2.048-28.672-30.72-28.672-45.056-10.24-2.048 4.096-4.096 8.192-4.096 10.24-18.432 0-34.816 6.144-51.2 8.192-14.336 4.096-28.672 6.144-43.008 10.24-24.576 8.192-49.152 20.48-71.68 34.816-10.24 6.144-20.48 14.336-30.72 24.576h-2.048c2.048-4.096 6.144-8.192 8.192-12.288 26.624-38.912 59.392-81.92 100.352-106.496 2.048 2.048 4.096 2.048 8.192 4.096 18.432 6.144 30.72-2.048 32.768-22.528 2.048-28.672-30.72-28.672-45.056-10.24-6.144 8.192-6.144 14.336-4.096 20.48-40.96 26.624-73.728 69.632-100.352 108.544-2.048 4.096-6.144 8.192-10.24 14.336h-4.096c0-4.096 0-8.192 2.048-12.288v-12.288c0-8.192 2.048-14.336 2.048-22.528 10.24-61.44 43.008-100.352 88.064-143.36 4.096 2.048 10.24 4.096 16.384 2.048 18.432-2.048 28.672-14.336 20.48-32.768-10.24-26.624-40.96-12.288-45.056 10.24v12.288c-45.056 43.008-79.872 83.968-90.112 149.504-2.048 8.192-2.048 16.384-2.048 22.528v12.288c0 4.096 0 8.192-2.048 12.288-4.096 0-10.24 0-14.336 2.048-8.192-28.672-10.24-57.344-10.24-86.016 0-16.384 0-34.816 2.048-51.2 2.048-32.768 8.192-65.536 20.48-94.208 6.144 2.048 12.288 0 18.432-4.096 16.384-10.24 20.48-24.576 6.144-38.912-20.48-20.48-43.008 4.096-36.864 26.624 0 4.096 2.048 6.144 4.096 8.192-14.336 32.768-20.48 65.536-22.528 100.352-2.048 16.384-2.048 34.816-2.048 51.2 0 30.72 2.048 59.392 10.24 90.112 0 0-2.048 0-2.048 2.048-6.144-16.384-12.288-34.816-18.432-51.2-20.48-61.44-45.056-118.784-92.16-165.888 2.048-4.096 2.048-6.144 2.048-10.24 2.048-28.672-30.72-28.672-45.056-10.24-10.24 16.384-2.048 26.624 12.288 30.72 10.24 2.048 18.432 2.048 24.576-2.048 43.008 45.056 67.584 98.304 88.064 159.744 6.144 16.384 10.24 34.816 18.432 51.2-2.048 0-4.096 2.048-4.096 2.048-4.096-6.144-10.24-12.288-14.336-18.432-38.912-55.296-71.68-110.592-135.168-141.312 0-16.384-20.48-26.624-36.864-18.432-18.432 8.192-16.384 22.528-6.144 32.768 12.288 14.336 26.624 16.384 38.912 0 0-2.048 2.048-2.048 2.048-4.096 59.392 28.672 90.112 81.92 129.024 137.216 4.096 6.144 8.192 12.288 14.336 18.432-12.288-8.192-26.624-12.288-38.912-16.384-49.152-18.432-94.208-38.912-143.36-43.008-14.336-2.048-28.672 0-45.056 2.048-8.192-14.336-30.72-10.24-40.96 4.096-10.24 16.384-2.048 26.624 12.288 30.72 18.432 6.144 30.72-2.048 32.768-22.528v-4.096c14.336-2.048 28.672-2.048 40.96-2.048 47.104 4.096 92.16 22.528 141.312 43.008 12.288 4.096 24.576 8.192 34.816 14.336-6.144 6.144-10.24 14.336-12.288 20.48h-2.048c-36.864-2.048-75.776 4.096-110.592 10.24-28.672 4.096-59.392 6.144-88.064 14.336-8.192-14.336-30.72-12.288-40.96 4.096s-2.048 26.624 12.288 30.72c18.432 6.144 30.72-2.048 32.768-22.528v-2.048c26.624-8.192 57.344-10.24 88.064-14.336 36.864-6.144 73.728-10.24 108.544-10.24v4.096c0 6.144 0 10.24 2.048 16.384-55.296 34.816-114.688 67.584-176.128 77.824-4.096-18.432-28.672-18.432-43.008-4.096-12.288 14.336-6.144 26.624 8.192 32.768 18.432 8.192 30.72 4.096 34.816-16.384 65.536-10.24 126.976-40.96 182.272-77.824 2.048 4.096 6.144 6.144 10.24 8.192-71.68 28.672-143.36 77.824-215.04 135.168 0 0-2.048 0-2.048 2.048l-2.048 2.048c-186.368 157.696-346.112 372.736-356.352 385.024l16.384 12.288c2.048-2.048 157.696-212.992 339.968-370.688 2.048 2.048 4.096 4.096 6.144 4.096 16.384 10.24 30.72 6.144 36.864-12.288 2.048-6.144 2.048-10.24 0-14.336 12.288-6.144 22.528-12.288 32.768-18.432 30.72-18.432 61.44-36.864 90.112-59.392 16.384-12.288 32.768-26.624 49.152-43.008 6.144-2.048 12.288-4.096 18.432-8.192-10.24 18.432-20.48 36.864-30.72 53.248-20.48 28.672-43.008 57.344-65.536 86.016-6.144 8.192-12.288 14.336-18.432 22.528-10.24-8.192-30.72-2.048-38.912 12.288-8.192 16.384 2.048 26.624 16.384 28.672 18.432 2.048 30.72-6.144 28.672-26.624 0-2.048 0-4.096-2.048-6.144 8.192-8.192 14.336-16.384 20.48-24.576 22.528-28.672 45.056-55.296 65.536-86.016 14.336-20.48 26.624-43.008 38.912-67.584v22.528c0 6.144 0 10.24-2.048 14.336-4.096 53.248-16.384 108.544-36.864 159.744-8.192 0-18.432 4.096-24.576 14.336-10.24 16.384-2.048 26.624 12.288 30.72 18.432 6.144 30.72-2.048 32.768-22.528 0-10.24-4.096-16.384-8.192-20.48 20.48-51.2 34.816-106.496 36.864-161.792 0-4.096 0-8.192 2.048-14.336v-22.528c6.144 0 10.24 0 16.384-2.048 2.048 4.096 2.048 8.192 2.048 10.24 8.192 30.72 12.288 59.392 14.336 92.16 2.048 28.672 10.24 61.44 8.192 88.064-6.144 2.048-10.24 6.144-14.336 12.288-10.24 16.384-2.048 26.624 12.288 30.72 18.432 6.144 30.72-2.048 32.768-22.528 0-14.336-8.192-22.528-18.432-22.528 0-28.672-6.144-61.44-8.192-88.064-2.048-30.72-6.144-61.44-14.336-92.16 0-4.096-2.048-8.192-2.048-10.24 2.048 0 4.096-2.048 6.144-2.048 4.096 6.144 8.192 14.336 10.24 20.48 14.336 26.624 24.576 55.296 34.816 86.016 8.192 26.624 22.528 57.344 28.672 83.968-6.144 4.096-10.24 8.192-12.288 14.336-6.144 18.432 4.096 26.624 18.432 26.624 18.432 2.048 30.72-8.192 26.624-28.672-2.048-14.336-12.288-20.48-22.528-18.432-6.144-28.672-20.48-57.344-28.672-83.968-8.192-30.72-20.48-59.392-34.816-88.064-2.048-6.144-6.144-12.288-10.24-16.384 10.24 6.144 20.48 12.288 30.72 20.48 18.432 16.384 34.816 34.816 51.2 55.296 14.336 16.384 30.72 32.768 43.008 51.2-4.096 2.048-6.144 6.144-8.192 8.192-10.24 16.384-2.048 26.624 12.288 30.72 18.432 6.144 30.72-2.048 32.768-22.528 0-18.432-12.288-24.576-24.576-22.528-14.336-20.48-30.72-36.864-45.056-53.248-16.384-20.48-32.768-38.912-53.248-55.296-10.24-8.192-18.432-14.336-30.72-20.48 6.144-6.144 10.24-12.288 14.336-18.432 12.288 4.096 26.624 8.192 38.912 16.384 26.624 14.336 53.248 34.816 79.872 51.2 22.528 12.288 43.008 24.576 63.488 38.912 0 2.048-2.048 2.048-2.048 4.096-10.24 16.384-2.048 26.624 12.288 30.72 18.432 6.144 30.72-2.048 32.768-22.528 0-22.528-18.432-26.624-32.768-20.48-22.528-14.336-45.056-26.624-67.584-40.96-26.624-16.384-53.248-36.864-79.872-51.2-12.288-6.144-26.624-12.288-40.96-16.384v-2.048c16.384-4.096 30.72-6.144 47.104-8.192h28.672c34.816 2.048 71.68 10.24 104.448 20.48-4.096 12.288 4.096 20.48 16.384 22.528 18.432 6.144 30.72-2.048 32.768-22.528 2.048-26.624-28.672-28.672-43.008-10.24-34.816-10.24-73.728-18.432-110.592-20.48h-28.672c-16.384 0-30.72 4.096-45.056 8.192 0-6.144-2.048-10.24-4.096-16.384 8.192-4.096 16.384-8.192 26.624-10.24 14.336 0 40.96-6.144 65.536-8.192z m-262.144 149.504c-28.672 20.48-59.392 38.912-88.064 59.392-10.24 6.144-20.48 14.336-32.768 18.432 47.104-38.912 96.256-71.68 143.36-96.256-6.144 6.144-14.336 12.288-22.528 18.432z m75.776-45.056l-2.048-6.144c2.048 0 4.096 0 6.144 2.048-4.096 0-4.096 2.048-4.096 4.096z" fill="#1296db" p-id="1894"></path></svg>